<svg id="Layer_1" data-name="Layer 1" xmlns="http://www.w3.org/2000/svg" viewBox="0 0 324.19 12.33"><defs><style>.cls-1{fill:#a37c37;}.cls-2{fill:none;stroke:#a37c37;stroke-width:0.35px;}</style></defs><title>divider</title><path class="cls-1" d="M622.56,669.63c-.95,3.59-3.4,6.76-10.12,6.76a4.61,4.61,0,0,0,.1-1c0-3.17-2.79-5.3-6.67-5.3a14.58,14.58,0,0,0-8,2.55c-4.73-1.42-9.36-2.7-14.33-2.7-3.36,0-7.66,1-8.7,4.68-2.51.09-5.77,1.42-7.19,3.45-.28.43,0,.71.28.38a9.59,9.59,0,0,1,6.86-3.26c0,.33,0,.57,0,1,0,3.12,2.79,5.39,6.62,5.39,2.74,0,5.2-.8,8.47-2.7,4.35,1.42,9,2.7,13.62,2.7s7.9-1.7,8.89-4.59c5.53,0,9.55-2.32,10.64-7.33.14-.71-.33-.38-.43,0m-26,4.54A50.93,50.93,0,0,0,611.83,677c-.71,2.18-3,3.69-6.53,3.69-4.54,0-9.13-1.8-13.38-3.22,1.56-1.13,3.12-2.17,4.68-3.26M581.38,671c5.06,0,12.67,2.55,14.52,3-1.61,1.09-3.12,2.13-4.63,3.26-3.69-1.09-10.26-2.79-14.61-2.74a11.61,11.61,0,0,0-1.32,0c.66-2.32,2.74-3.55,6.05-3.55m-6.15,4.21c2.84,0,9.5,1.84,13.85,3.4a13.39,13.39,0,0,1-7,2.13c-3.83,0-6.9-2.22-6.9-5.06Zm30.07-4.3c3.55,0,6.76,2.22,6.76,4.68,0,.47,0,.28-.14.8-4.54-.38-9.08-2.13-13.43-3.5a13.13,13.13,0,0,1,6.81-2" transform="translate(-433.18 -669.22)"/><line class="cls-2" x1="127.85" y1="6.17" y2="6.17"/><line class="cls-2" x1="324.19" y1="6.17" x2="196.34" y2="6.17"/></svg>
